# xmcd
#
# Track frame offsets: 
#        150
#        13792
#        27403
#        40967
#        51946
#        62436
#        74319
#        86317
#        97861
#        109950
#        124301
#        138126
#        149513
#        160651
#        172879
#        184403
#
# Disc length: 2615 seconds
#
# Revision: 3
# Processed by: cddbd v1.5.2PL0 Copyright (c) Steve Scherf et al.
# Submitted via: ExactAudioCopyFreeDBPlugin 1.0
#
DISCID=d80a3510
DTITLE=John Lee Hooker - Past Perfect, Disc 08 - Guitar Lovin' Man
DYEAR=2001
DGENRE=Blues
TTITLE0=Too Much Boogie
TTITLE1=Need Somebody
TTITLE2=Please Take Me Back
TTITLE3=Gotta Boogie
TTITLE4=Stuttering Blues
TTITLE5=Pouring down Rain
TTITLE6=Love My Baby
TTITLE7=Misbelieving Baby
TTITLE8=Wobbling Baby
TTITLE9=Goin' South
TTITLE10=My Baby Don't Love Me
TTITLE11=I Ain't Got Nobody
TTITLE12=Real Real Gone
TTITLE13=Guitar Lovin' Man
TTITLE14=Blue Monday
TTITLE15=My Baby Put Me Down
EXTD=
EXTT0=
EXTT1=
EXTT2=
EXTT3=
EXTT4=
EXTT5=
EXTT6=
EXTT7=
EXTT8=
EXTT9=
EXTT10=
EXTT11=
EXTT12=
EXTT13=
EXTT14=
EXTT15=
PLAYORDER=
